# xmcd
#
# Track frame offsets:
#	150
#	17942
#	35895
#	47435
#	62045
#	80790
#	97577
#	112872
#	129052
#	143010
#	158267
#	171480
#	188837
#
# Disc length: 2742 seconds
#
# Revision: 0
# Processed by: cddbd v1.5.2PL0 Copyright (c) Steve Scherf et al.
# Submitted via: EasyCDDAExtractor 16.0.8.1
#
DISCID=9c0ab40d
DTITLE=Sula Mazurega - Vol.04
DYEAR=1993
DGENRE=Sertaneja
TTITLE0=Como Vai Você?
TTITLE1=Tentei Fugir
TTITLE2=Namorados Do Luar
TTITLE3=Anjo Da Guarda
TTITLE4=É Só Saudade
TTITLE5=Entre  Lágrimas
TTITLE6=O Que Tiver Que Ser Será
TTITLE7=Cadê O Trem
TTITLE8=Esquecido
TTITLE9=Tô No Sufoco
TTITLE10=Me Dê A Mão Menino
TTITLE11=Sou Fera Ferida
TTITLE12=Sem Saída
EXTD=
EXTT0=
EXTT1=
EXTT2=
EXTT3=
EXTT4=
EXTT5=
EXTT6=
EXTT7=
EXTT8=
EXTT9=
EXTT10=
EXTT11=
EXTT12=
PLAYORDER=
